<?xml version="1.0" standalone="no"?>
<!DOCTYPE svg PUBLIC "-//W3C//DTD SVG 20010904//EN" "http://www.w3.org/TR/2001/REC-SVG-20010904/DTD/svg10.dtd">
<svg version="1.0" xmlns="http://www.w3.org/2000/svg" width="291.000000pt" height="248.000000pt"
        viewBox="0 0 291.000000 248.000000" preserveAspectRatio="xMidYMid meet">
        <metadata>
                Created by potrace 1.10, written by Peter Selinger 2001-2011
        </metadata>
        <g transform="translate(0.000000,248.000000) scale(0.100000,-0.100000)" fill="#000000" stroke="none">
                <path d="M2282 2222 c-88 -159 -321 -448 -566 -700 -129 -132 -131 -135 -134
-184 -2 -32 1 -47 8 -43 5 3 10 17 10 31 0 25 19 49 137 169 80 84 123 130
222 245 40 47 81 91 90 98 9 7 16 17 16 23 0 5 5 13 10 17 6 4 46 54 88 112
43 58 82 110 87 117 5 6 18 26 29 44 14 23 22 28 25 18 7 -21 13 -148 6 -144
-3 2 -4 -22 -4 -53 1 -32 -2 -61 -6 -67 -4 -5 -10 -23 -14 -40 -8 -30 -37 -95
-59 -129 -32 -51 -123 -146 -179 -186 -21 -15 -34 -30 -31 -34 3 -3 0 -6 -8
-6 -8 0 -26 -10 -41 -23 -55 -46 -104 -83 -145 -109 -24 -15 -43 -32 -43 -38
0 -7 -7 -7 -21 1 -12 6 -19 7 -16 1 4 -5 -6 -20 -21 -33 -19 -18 -23 -19 -12
-4 8 11 -16 -8 -54 -42 -38 -34 -73 -60 -78 -57 -5 3 -30 -10 -56 -29 -77 -56
-234 -148 -241 -141 -11 11 232 234 257 234 12 0 22 6 22 14 0 9 -7 12 -19 9
-10 -3 -22 0 -26 7 -4 7 -49 -30 -118 -97 -119 -115 -354 -326 -425 -382 -24
-18 -41 -35 -39 -38 6 -6 465 273 667 405 201 131 315 213 450 323 204 165
265 262 291 459 9 74 2 330 -10 330 -3 0 -25 -35 -49 -78z" />
                <path d="M2180 1473 c-281 -250 -660 -488 -1239 -777 -128 -65 -231 -119 -229
-121 2 -2 32 3 66 12 44 11 62 20 58 29 -6 16 330 188 347 177 6 -3 7 -1 3 5
-4 7 -3 12 2 12 10 0 162 84 328 181 55 32 105 59 110 59 12 0 149 -139 143
-144 -18 -16 -500 -178 -646 -217 -294 -79 -308 -83 -238 -72 64 9 466 127
630 183 553 192 728 317 765 546 11 66 5 205 -9 203 -3 0 -44 -34 -91 -76z
m92 -36 c0 -95 -12 -158 -39 -212 -25 -50 -82 -113 -130 -146 l-45 -31 -91 88
c-51 49 -75 71 -54 48 20 -22 34 -44 30 -49 -5 -4 -3 -5 3 -2 6 3 32 -16 58
-42 l48 -48 -36 -22 c-19 -12 -79 -42 -133 -66 l-98 -44 -72 72 c-40 39 -73
74 -73 77 0 3 35 27 78 55 184 118 442 315 516 394 16 17 32 29 34 26 2 -2 4
-46 4 -98z" />
                <path d="M2189 1390 l-35 -39 43 -43 c24 -23 43 -39 43 -36 0 4 -17 23 -37 42
l-38 35 34 35 c19 20 32 38 30 41 -3 2 -21 -13 -40 -35z" />
                <path d="M2056 1255 c-47 -46 -86 -88 -86 -92 0 -4 41 33 90 82 50 49 90 91
90 92 0 9 -18 -6 -94 -82z" />
                <path d="M1842 1046 c-45 -45 -82 -85 -82 -90 0 -4 39 31 87 78 48 46 85 87
83 90 -3 2 -42 -33 -88 -78z" />
                <path d="M1537 1342 c-21 -23 -21 -32 -2 -32 12 0 35 28 35 44 0 12 -17 5 -33
-12z" />
                <path d="M2105 913 c-177 -90 -566 -213 -955 -302 -215 -49 -716 -131 -802
-131 -21 0 -38 -4 -38 -10 0 -12 229 -16 590 -12 612 7 972 69 1125 191 60 49
113 126 135 198 32 105 29 108 -55 66z m-26 -50 c-15 -18 -15 -18 36 3 33 13
-22 -99 -76 -156 -46 -48 -145 -103 -205 -114 -15 -3 -35 -13 -45 -22 -11 -10
-19 -12 -19 -6 0 7 -9 12 -20 12 -11 0 -20 -5 -20 -10 0 -6 -6 -10 -12 -9 -7
1 -24 0 -38 -4 -72 -16 -144 -27 -220 -33 -47 -4 -87 -11 -88 -16 -2 -5 -10
-4 -18 3 -7 6 -22 8 -31 4 -20 -8 -91 -13 -240 -17 -57 -2 -103 -7 -103 -12 0
-5 -6 -4 -13 1 -13 11 -77 10 -95 -1 -7 -4 -12 -3 -12 2 0 5 -21 8 -47 6 -46
-3 -45 -2 14 10 34 7 69 19 77 25 11 9 20 10 35 2 12 -7 22 -7 25 -2 4 5 25
12 49 16 23 3 56 10 72 15 17 4 57 13 90 20 33 7 67 15 75 18 8 3 22 6 31 7
32 4 125 28 143 37 10 6 28 11 40 13 57 8 126 28 126 36 0 6 5 7 10 4 6 -3 65
13 132 35 68 23 132 44 142 46 11 2 22 7 25 11 3 5 11 8 16 8 22 0 112 39 140
61 36 28 42 29 24 7z" />
                <path d="M1391 885 c16 -22 24 -31 57 -59 40 -34 23 -11 -25 34 -26 25 -40 36
-32 25z" />
                <path d="M595 318 c-51 -27 -60 -84 -20 -123 27 -28 71 -33 99 -12 16 12 16
14 2 26 -12 10 -19 11 -30 2 -31 -26 -73 31 -46 64 14 17 46 20 55 5 5 -8 11
-7 21 1 21 17 17 26 -17 38 -38 13 -39 13 -64 -1z" />
                <path d="M1838 300 c-25 -26 -29 -36 -24 -63 11 -58 76 -86 122 -53 26 20 6
43 -24 27 -28 -15 -29 -14 -47 13 -13 19 -14 29 -5 45 11 22 44 28 55 11 5 -8
11 -7 21 1 20 16 18 24 -11 37 -39 18 -54 15 -87 -18z" />
                <path d="M743 303 c-3 -10 -17 -42 -30 -72 -12 -29 -23 -55 -23 -57 0 -12 42
-2 46 11 4 9 19 15 35 15 17 0 32 -6 35 -15 7 -16 44 -21 44 -5 0 5 -12 39
-27 75 -22 54 -31 65 -50 65 -13 0 -26 -8 -30 -17z" />
                <path d="M870 245 c0 -68 2 -75 20 -75 13 0 20 7 20 20 0 13 7 20 19 20 54 0
83 45 56 86 -13 20 -24 24 -65 24 l-50 0 0 -75z m83 31 c6 -16 -11 -36 -30
-36 -7 0 -13 11 -13 25 0 18 5 25 19 25 10 0 21 -6 24 -14z" />
                <path d="M1016 248 c2 -66 4 -73 23 -76 20 -3 21 1 21 72 0 72 -1 76 -22 76
-22 0 -23 -4 -22 -72z" />
                <path d="M1070 305 c0 -8 9 -15 20 -15 18 0 20 -7 20 -60 0 -58 1 -60 26 -60
25 0 26 1 22 58 -3 53 -1 57 20 60 12 2 22 10 22 18 0 11 -15 14 -65 14 -51 0
-65 -3 -65 -15z" />
                <path d="M1232 262 c-36 -89 -37 -92 -14 -92 11 0 22 7 26 15 3 9 18 15 35 15
16 0 31 -6 35 -15 3 -8 15 -15 27 -15 16 0 20 4 15 18 -50 131 -51 132 -76
132 -21 0 -29 -9 -48 -58z m61 -12 c4 -15 0 -20 -14 -20 -21 0 -22 1 -13 24 8
22 21 20 27 -4z" />
                <path d="M1370 245 l0 -75 55 0 c48 0 55 2 55 20 0 16 -7 20 -32 20 l-33 0 3
55 c4 53 3 55 -22 55 -26 0 -26 -1 -26 -75z" />
                <path d="M1540 305 c0 -9 10 -15 26 -15 25 0 26 -1 22 -57 -3 -54 -1 -58 20
-61 21 -3 22 0 22 57 0 54 2 61 20 61 11 0 20 7 20 15 0 12 -14 15 -65 15 -51
0 -65 -3 -65 -15z" />
                <path d="M1682 245 l-3 -75 61 0 c53 0 60 2 60 20 0 17 -7 20 -41 20 -28 0
-39 4 -36 13 2 7 17 11 36 9 25 -2 31 2 31 17 0 15 -7 19 -31 17 -18 0 -34 5
-36 12 -3 8 8 12 36 12 30 0 41 4 41 15 0 12 -13 15 -58 15 l-58 0 -2 -75z" />
                <path d="M1970 245 c0 -68 2 -75 20 -75 16 0 20 7 20 35 0 33 2 35 28 32 24
-4 27 -8 24 -35 -3 -28 0 -32 22 -32 26 0 26 1 26 75 0 73 -1 75 -24 75 -21 0
-24 -5 -23 -27 2 -23 -2 -27 -23 -27 -20 0 -26 5 -28 27 -2 19 -9 27 -23 27
-17 0 -19 -8 -19 -75z" />
        </g>
</svg>