<svg id="Layer_1" data-name="Layer 1" xmlns="http://www.w3.org/2000/svg" viewBox="0 0 122.88 122.88"><defs><style>.cls-1{fill:#fff;}.cls-2{fill-rule:evenodd;}.cls-3{fill:#d92d27;}</style></defs><title>no-drugs</title><path class="cls-1" d="M21.2,32.93,90,101.68A49.29,49.29,0,0,1,12.13,61.44h0A49.12,49.12,0,0,1,21.2,32.93ZM98.92,93.5,29.39,24a49.25,49.25,0,0,1,66.92,2.61A49.23,49.23,0,0,1,98.92,93.5Z"/><path class="cls-1" d="M24,29.38,93.49,98.92A49.31,49.31,0,0,1,24,29.38ZM101.68,90,32.92,21.2A49.24,49.24,0,0,1,96.3,26.57a49,49,0,0,1,14.45,34.87h0A49.12,49.12,0,0,1,101.68,90Z"/><path class="cls-2" d="M58.84,74a11.21,11.21,0,0,1,15.3-4.1,11,11,0,0,1,3.56,3.25l-19.39,11A11.18,11.18,0,0,1,58.84,74ZM44.91,37.59A11.09,11.09,0,0,1,60,33.54h0a11.08,11.08,0,0,1,4,15.09C57.76,59.51,51.5,70.27,45.22,81.15h0a11,11,0,0,1-15,4h0a11,11,0,0,1-4-15h0c6.28-10.88,12.44-21.67,18.73-32.56Zm32.36,7.24A11.21,11.21,0,0,1,96.13,44L76.72,55a11.21,11.21,0,0,1,.55-10.14ZM97,45.55a11.21,11.21,0,0,1-19.46,11L97,45.55ZM52.7,64.76,36.49,55.71l-8.9,15.41h0a9.79,9.79,0,0,0-1,7.43c.65,2.43,2.22,3.86,4.54,5.21h0a8,8,0,0,0,6.69,1,9.79,9.79,0,0,0,6-4.55h0L52.7,64.76Zm25.92,10A11.2,11.2,0,0,1,62.94,89.3a11.06,11.06,0,0,1-3.78-3.56l19.46-11Z"/><path class="cls-3" d="M61.44,122.88A61.31,61.31,0,1,0,38,118.22a61.29,61.29,0,0,0,23.49,4.66ZM101.68,90,32.93,21.2a49.44,49.44,0,0,1,47.38-5.34A49.53,49.53,0,0,1,107,42.58a49,49,0,0,1,3.73,18.86h0A48.93,48.93,0,0,1,101.68,90ZM24,29.38,93.5,98.92A49.32,49.32,0,0,1,24,29.38Z"/></svg>