<?xml version="1.0" encoding="iso-8859-1"?>
<!-- Uploaded to: SVG Repo, www.svgrepo.com, Generator: SVG Repo Mixer Tools -->
<svg version="1.1" id="Layer_1" xmlns="http://www.w3.org/2000/svg" xmlns:xlink="http://www.w3.org/1999/xlink" 
	 viewBox="0 0 512 512" xml:space="preserve">
<polyline style="fill:#102F51;" points="138.542,217.639 101.122,165.942 146.679,55.733 255.73,10.468 365.939,56.025 
	411.204,165.077 373.417,217.481 "/>
<path style="fill:#FEBBA0;" d="M213.868,319.12v20.353c0,6.8-4.088,12.933-10.366,15.549l-67.242,28.018
	c-14.206,5.92-23.459,22.008-23.459,37.398v81.093h286.358v-81.093c0-15.389-9.254-31.479-23.459-37.398l-67.242-28.018
	c-6.277-2.615-10.366-8.749-10.366-15.549V319.12H213.868z"/>
<path style="fill:#102F51;" d="M375.699,383.04l-67.242-28.018c-5.2-2.166-8.889-6.75-10.005-12.124
	c-8.884,14.064-24.556,23.413-42.421,23.413c-17.916,0-33.629-9.403-42.499-23.535c-1.085,5.427-4.789,10.064-10.029,12.247
	l-67.242,28.018c-14.206,5.92-23.459,22.008-23.459,37.398v81.093h286.358v-81.093C399.158,405.049,389.904,388.958,375.699,383.04z
	"/>
<path style="fill:#FEBBA0;" d="M258.799,138.983c-35.188,0-68.223,5.018-96.852,13.804v46.374
	c-12.925,0-23.404,10.478-23.404,23.404s10.478,23.404,23.404,23.404v17.472c1.126,14.735,8.311,27.854,19.192,35.039l56.576,32.343
	c11.36,7.503,25.174,7.503,36.534,0l56.405-32.343c10.88-7.185,18.233-20.304,19.36-35.039v-17.472
	c12.925,0,23.404-10.478,23.404-23.404c0-12.925-10.478-23.404-23.404-23.404v-48.041
	C322.717,143.371,291.699,138.983,258.799,138.983z"/>
<g>
	<path style="fill:#03203B;" d="M213.531,342.776c-1.085,5.427-4.789,10.064-10.029,12.247l-1.628,0.678l19.503,54.625
		l34.653-44.015C238.113,366.311,222.401,356.909,213.531,342.776z"/>
	<path style="fill:#03203B;" d="M298.532,342.776c1.086,5.427,4.789,10.064,10.029,12.247l1.628,0.678l-19.503,54.625
		l-34.653-44.015C273.949,366.311,289.662,356.909,298.532,342.776z"/>
</g>
<g>
	<circle style="fill:#FFAF18;" cx="312.88" cy="452.509" r="18.807"/>
	<path style="fill:#FFAF18;" d="M65.282,247.029l-18.278,31.659H10.448l18.278,31.659l-18.278,31.659h36.556l18.278,31.659
		l18.278-31.659h36.556l-18.278-31.659l18.278-31.659H83.56L65.282,247.029L65.282,247.029z"/>
</g>
<path style="fill:#3D5F7A;" d="M350.115,156.874c-14.15-40.865-50.933-69.995-94.085-69.995s-79.935,29.13-94.085,69.995H350.115z"
	/>
<path style="fill:#4D4D4D;" d="M333.442,156.874c0,17.702-34.688,32.053-77.477,32.053s-77.477-14.351-77.477-32.053H333.442z"/>
<path style="fill:#102F51;" d="M424.413,320.123l34.317,42.491c3.092,3.827,2.797,9.369-0.681,12.847l-17.083,17.083
	c-4.042,4.042-10.696,3.689-14.288-0.759l-33.03-40.897"/>
<g>
	<path style="fill:#4D4D4D;" d="M359.641,316.978l104.852-104.851c4.147-4.147,10.871-4.147,15.018,0l18.941,18.941
		c4.147,4.147,4.147,10.871,0,15.018l-104.852,104.85c-4.147,4.147-10.871,4.147-15.018,0l-18.941-18.941
		C355.494,327.848,355.494,321.125,359.641,316.978z"/>
	
		<rect x="436.843" y="215.236" transform="matrix(0.7071 -0.7071 0.7071 0.7071 -25.5189 380.8306)" style="fill:#4D4D4D;" width="20.202" height="11.967"/>
</g>
<path d="M10.585,511.979h-0.137C4.679,511.979,0,507.302,0,501.531c0-5.771,4.679-10.448,10.448-10.448h0.137
	c5.769,0,10.448,4.678,10.448,10.448C21.033,507.302,16.354,511.979,10.585,511.979z"/>
<path d="M501.511,511.979h-0.137c-5.769,0-10.448-4.678-10.448-10.448c0-5.771,4.679-10.448,10.448-10.448h0.137
	c5.769,0,10.448,4.678,10.448,10.448C511.959,507.302,507.281,511.979,501.511,511.979z"/>
<path d="M294.084,235.474c-6.439,0-11.679-5.239-11.679-11.678c0-6.44,5.24-11.679,11.679-11.679
	c6.439,0,11.678,5.239,11.678,11.679C305.761,230.235,300.523,235.474,294.084,235.474z"/>
<path d="M217.875,235.474c-6.439,0-11.678-5.239-11.678-11.678c0-6.44,5.239-11.679,11.678-11.679
	c6.439,0,11.679,5.239,11.679,11.679C229.554,230.235,224.314,235.474,217.875,235.474z"/>
<path d="M283.925,245.684h-27.777c-0.009,0-0.02,0.001-0.029,0.001c-0.009,0-0.02-0.001-0.029-0.001h-27.779
	c-12.886,0-23.369,10.484-23.369,23.37v3.837c0,5.771,4.679,10.448,10.448,10.448h27.777c4.787,0,9.241-1.449,12.952-3.929
	c3.709,2.479,8.163,3.929,12.95,3.929h27.779c5.769,0,10.448-4.678,10.448-10.448v-3.837
	C307.296,256.168,296.812,245.684,283.925,245.684z"/>
<path d="M312.883,481.767c-16.131,0-29.255-13.124-29.255-29.255s13.124-29.255,29.255-29.255s29.255,13.124,29.255,29.255
	S329.014,481.767,312.883,481.767z M312.883,444.154c-4.609,0-8.359,3.75-8.359,8.359c0,4.609,3.75,8.359,8.359,8.359
	c4.609,0,8.359-3.75,8.359-8.359C321.242,447.904,317.492,444.154,312.883,444.154z"/>
<path d="M65.282,384.113c-3.732,0-7.182-1.991-9.048-5.224l-15.262-26.435H10.448c-3.732,0-7.182-1.991-9.048-5.224
	c-1.866-3.233-1.866-7.216,0-10.448l15.262-26.435L1.4,283.912c-1.866-3.233-1.866-7.215,0-10.448
	c1.866-3.233,5.316-5.224,9.048-5.224h30.524l15.262-26.435c1.866-3.233,5.316-5.224,9.048-5.224s7.182,1.991,9.048,5.224
	l15.262,26.435h30.524c3.732,0,7.182,1.991,9.048,5.224c1.866,3.233,1.866,7.216,0,10.448l-15.262,26.435l15.262,26.435
	c1.866,3.233,1.866,7.215,0,10.448c-1.866,3.233-5.316,5.224-9.048,5.224H89.593l-15.262,26.435
	C72.464,382.121,69.015,384.113,65.282,384.113z M28.544,331.557h18.46c3.732,0,7.182,1.991,9.048,5.224l9.23,15.987l9.23-15.987
	c1.866-3.233,5.316-5.224,9.048-5.224h18.46l-9.23-15.987c-1.866-3.233-1.866-7.215,0-10.448l9.23-15.987H83.561
	c-3.732,0-7.182-1.991-9.048-5.224l-9.23-15.987l-9.23,15.987c-1.866,3.233-5.316,5.224-9.048,5.224H28.544l9.23,15.987
	c1.866,3.233,1.866,7.216,0,10.448L28.544,331.557z"/>
<path d="M467.573,491.083h-57.966v-70.645c0-20.367-12.291-39.71-29.888-47.043l-67.242-28.017
	c-2.391-0.996-3.936-3.313-3.936-5.904v-16.269l27.311-15.66c0.19-0.11,0.377-0.225,0.56-0.346
	c13.675-9.031,22.654-25.091,24.019-42.962c0.021-0.264,0.03-0.531,0.03-0.796v-8.674c13.568-4.413,23.403-17.181,23.403-32.202
	c0-0.544-0.041-1.079-0.066-1.618l35.881-49.76c2.12-2.94,2.564-6.768,1.175-10.116L375.589,52.02
	c-1.063-2.56-3.098-4.592-5.659-5.65L259.722,0.813c-2.562-1.058-5.437-1.056-7.997,0.006L142.674,46.083
	c-2.559,1.063-4.592,3.098-5.649,5.659L91.467,161.951c-1.385,3.352-0.935,7.181,1.192,10.118l35.495,49.037
	c-0.021,0.487-0.06,0.969-0.06,1.46c0,15.021,9.835,27.789,23.403,32.202v8.674c0,0.265,0.01,0.532,0.03,0.796
	c1.372,17.944,10.288,34.005,23.852,42.962c0.187,0.123,0.377,0.24,0.573,0.352l27.466,15.701v16.221
	c0,2.59-1.545,4.908-3.936,5.904l-67.242,28.018c-17.598,7.333-29.888,26.677-29.888,47.042v70.645H44.387
	c-5.769,0-10.448,4.678-10.448,10.448c0,5.771,4.679,10.448,10.448,10.448h423.187c5.769,0,10.448-4.678,10.448-10.448
	C478.022,495.76,473.343,491.083,467.573,491.083z M137.837,198.845l-24.83-34.303l41.675-100.818l101.058-41.946l102.209,42.25
	l41.37,99.668l-25.28,35.06c-3.755-3.789-8.39-6.705-13.577-8.392v-32.054c0-1.284-0.274-4.279-0.473-4.854
	c-15.952-46.071-57.729-77.025-103.957-77.025s-88.005,30.954-103.957,77.025c-0.386,1.115-0.563,2.27-0.563,3.42
	c-0.004,0-0.008-0.001-0.013-0.001v33.489C146.271,192.064,141.608,195.014,137.837,198.845z M177.834,146.426
	c15.774-29.876,45.659-49.099,78.197-49.099s62.423,19.223,78.197,49.099h-0.786H178.488H177.834z M312.248,167.322
	c-11.195,5.854-30.681,11.157-56.283,11.157s-45.088-5.303-56.284-11.157H312.248z M186.64,289.591
	c-7.984-5.406-13.285-15.292-14.246-26.57v-17.052c0-5.771-4.679-10.448-10.448-10.448c-7.143,0-12.955-5.812-12.955-12.955
	c0-7.142,5.811-12.956,12.955-12.956c5.769,0,10.448-4.678,10.448-10.448V170.89c3.968,6.122,11.348,12.742,24.792,18.304
	c15.87,6.566,36.745,10.182,58.779,10.182s42.907-3.616,58.778-10.182c13.476-5.575,20.86-12.214,24.822-18.348v28.318
	c0,5.771,4.679,10.448,10.448,10.448c7.143,0,12.955,5.812,12.955,12.955c0,7.142-5.812,12.955-12.955,12.955
	c-5.769,0-10.448,4.678-10.448,10.448v17.05c-0.949,11.048-6.442,21.174-14.418,26.575l-56.096,32.165
	c-0.19,0.11-0.377,0.225-0.56,0.346c-7.834,5.173-17.184,5.173-25.018,0c-0.187-0.123-0.377-0.241-0.573-0.352L186.64,289.591z
	 M245.583,491.083H123.249v-70.645c0-11.776,7.321-23.708,17.029-27.753l55.457-23.107l15.803,44.261
	c1.279,3.582,4.402,6.184,8.155,6.799c0.563,0.092,1.126,0.137,1.686,0.137c3.171,0,6.208-1.446,8.208-3.985l15.996-20.316v94.61
	H245.583z M214.671,360.468c6.39,5.992,13.97,10.493,22.246,13.228l-12.056,15.314L214.671,360.468z M224.297,339.983
	c0.003-0.17,0.019-0.337,0.019-0.509V335.2l7.94,4.539c7.335,4.763,15.529,7.144,23.726,7.144c8.199,0,16.396-2.383,23.732-7.149
	l7.931-4.548v4.288c0,0.213,0.019,0.422,0.023,0.633c-7.494,9.916-19.079,15.756-31.636,15.756
	C243.412,355.863,231.788,349.976,224.297,339.983z M297.394,360.462l-10.192,28.547l-12.059-15.317
	C283.419,370.956,291.003,366.455,297.394,360.462z M388.71,491.083H266.479V396.47l15.997,20.319c2,2.54,5.037,3.985,8.208,3.985
	c0.559,0,1.123-0.045,1.686-0.137c3.753-0.613,6.876-3.217,8.155-6.799l15.789-44.224l55.367,23.069
	c9.707,4.044,17.028,15.976,17.028,27.753V491.083z"/>
<path d="M270.807,53.135l3.691-3.691c4.08-4.08,4.08-10.696,0-14.776c-4.081-4.08-10.697-4.08-14.777,0l-3.69,3.69l-3.69-3.69
	c-4.079-4.08-10.693-4.08-14.777,0c-4.08,4.08-4.08,10.696,0,14.776l3.691,3.691l-3.691,3.691c-4.08,4.08-4.08,10.696,0,14.776
	c2.041,2.041,4.714,3.06,7.388,3.06c2.674,0,5.348-1.021,7.388-3.06l3.69-3.69l3.69,3.69c2.041,2.041,4.714,3.06,7.388,3.06
	s5.347-1.021,7.388-3.06c4.08-4.08,4.08-10.696,0-14.776L270.807,53.135z"/>
<path d="M505.841,223.679l-18.943-18.941c-7.806-7.804-20.255-8.177-28.524-1.145l-1.136-1.136c-4.081-4.08-10.695-4.08-14.777,0
	l-14.285,14.285c-4.08,4.08-4.08,10.695,0,14.776l1.074,1.074l-76.998,76.999c-3.98,3.979-6.171,9.27-6.171,14.896
	c0,5.627,2.192,10.918,6.171,14.897l18.941,18.941c3.98,3.98,9.27,6.171,14.897,6.171c1.596,0,3.16-0.195,4.68-0.539l27.777,34.395
	c3.572,4.422,8.876,7.13,14.551,7.431c0.353,0.019,0.706,0.028,1.058,0.028c5.302,0,10.426-2.111,14.195-5.878l17.084-17.083
	c7.274-7.274,7.885-18.796,1.421-26.801l-11.892-14.725l10.311-10.311c3.119-3.12,3.943-7.862,2.059-11.85l-8.722-18.464
	l47.226-47.227C514.053,245.259,514.053,231.895,505.841,223.679z M434.228,384.505l-26.548-32.871l15.906-15.906l9.232,11.431
	c0.007,0.008,0.015,0.018,0.022,0.026l17.294,21.415L434.228,384.505z M445.3,321.438l-3.538,3.538l-3.317-4.107l4.473-4.473
	L445.3,321.438z M491.064,238.697L386.318,343.444c-0.023,0.023-0.046,0.046-0.069,0.069l-0.037,0.037
	c-0.06,0.057-0.187,0.055-0.241,0l-18.941-18.941c-0.056-0.057-0.056-0.184,0-0.241h0.001L471.88,219.515
	c0.033-0.033,0.077-0.05,0.122-0.05c0.044,0,0.088,0.017,0.12,0.05l18.941,18.94C491.13,238.522,491.13,238.631,491.064,238.697z"/>
</svg>