<svg id="Layer_1" data-name="Layer 1" xmlns="http://www.w3.org/2000/svg" viewBox="0 0 106.22 122.88"><defs><style>.cls-1{fill-rule:evenodd;}</style></defs><title>hostess</title><path class="cls-1" d="M63.67,76.9a14.57,14.57,0,0,0,3.88-4.3,7.45,7.45,0,0,1-4.1-3.75l-.12-.38a19.43,19.43,0,0,1-11.45,4.24,17.56,17.56,0,0,1-9.72-3.18c-.63,1.64-2.3,2.9-4.58,3.8A18.21,18.21,0,0,0,43.13,78a20.14,20.14,0,0,0,10.65,2.36,18.12,18.12,0,0,0,9.89-3.44Zm-10.56-58a5.84,5.84,0,0,1,3.79,1.4h8.93L58.8,26a5.82,5.82,0,0,1-11.51-1.23v-.2l-6.9-4.23h8.93a5.82,5.82,0,0,1,3.79-1.4ZM23.53,17.78c5.39-2.69,10.2-5.05,14.47-8.27C44.08,4.93,46.28-1.19,55.1.2,59.79.94,64,6.68,67.7,9.92a44.14,44.14,0,0,0,13.32,8c5.56,1.87,4.74,3.61,2,8.57a18.31,18.31,0,0,1-2.37,3.4L81,33.58l-.76,1c.15,8,1.53,17.34,4.84,24.26C87.81,64.44,91.8,68.5,97.45,69a.41.41,0,0,1,.38.44l0,.14c-1.38,3.73-9.83,5.62-18,5.42A67.53,67.53,0,0,1,92.6,79.59C101,84,102.44,95.18,103.66,104.9c.24,1.93.48,3.82.75,5.52.19,1.2.44,2.42.68,3.64a45.67,45.67,0,0,1,1.13,8.36v0a.42.42,0,0,1-.41.41H83.9V117.4a1.37,1.37,0,0,0-2.74,0v5.48H24.71V117.4a1.37,1.37,0,0,0-2.74,0v5.48H.41a.42.42,0,0,1-.41-.41c-.07-5,1-9.88,2-14.79l.05-.24c.47-2.2.82-4.54,1.17-6.88,1.24-8.35,2.5-16.87,9.6-21a43.31,43.31,0,0,1,9.79-3.87c.67-.19,1.35-.38,2-.55C17.34,74.9,10.22,72.94,9,69.51A.42.42,0,0,1,9.25,69l.11,0a12.61,12.61,0,0,0,10.14-6.2v0c2.21-3.55,3.39-8.3,4-13.48.3-2.64.48-5.31.66-7.95a108.86,108.86,0,0,1,1.26-12A30.18,30.18,0,0,1,22,23.1c-1.47-3.47-1.22-3.92,1.58-5.32Zm51,27.92-1-8.27c-18.32,6.14-23.16,4.85-40.8,0L31.07,48.22C34.15,59.46,42.64,70,51.88,70c9.94,0,20-12.12,22.68-24.26ZM64,78.91,53.35,122.12l21.22-17.39-9.9-10.27,16.83-6.8.43-11.42c-4.86-.72-8-1.43-12.54-2.37a23.46,23.46,0,0,1-5.39,5ZM53.21,122.23,43,80.52a19.66,19.66,0,0,1-7-5.8c-4.38.53-7.06.6-12.19,1.23l.24,12.2,17,6.19L30.77,105.1l22.16,17.37.28-.24Z"/></svg>